HIERARCHY
ROOT hip
{
  OFFSET 0 90.174 2.4664
  CHANNELS 6 Xposition Yposition Zposition Zrotation Xrotation Yrotation
  JOINT abdomen
  {
    OFFSET 0 -1.186 -1.5018
    CHANNELS 6 Xposition Yposition Zposition Zrotation Xrotation Yrotation
    JOINT abdomen2
    {
      OFFSET 0 9.964 0.2134
      CHANNELS 6 Xposition Yposition Zposition Zrotation Xrotation Yrotation
      JOINT chest
      {
        OFFSET 0 13.134 -3.2573
        CHANNELS 6 Xposition Yposition Zposition Zrotation Xrotation Yrotation
        JOINT neck
        {
          OFFSET 0 20.686 -1.6905
          CHANNELS 6 Xposition Yposition Zposition Zrotation Xrotation Yrotation
          JOINT head
          {
            OFFSET 0 7.238 -0.1237
            CHANNELS 6 Xposition Yposition Zposition Zrotation Xrotation Yrotation
            End Site
            {
              OFFSET 0 0 0
            }
          }
        }
        JOINT lCollar
        {
          OFFSET 1.7069 20.075 5.0056
          CHANNELS 6 Xposition Yposition Zposition Zrotation Xrotation Yrotation
          JOINT lShldr
          {
            OFFSET 13.6458 -0.047 -4.849
            CHANNELS 6 Xposition Yposition Zposition Zrotation Xrotation Yrotation
            JOINT lForeArm
            {
              OFFSET 28.3255 -0.9759 2.2888
              CHANNELS 6 Xposition Yposition Zposition Zrotation Xrotation Yrotation
              JOINT lHand
              {
                OFFSET 22.1583 -0.53 10.8316
                CHANNELS 6 Xposition Yposition Zposition Zrotation Xrotation Yrotation
                JOINT lThumb1
                {
                  OFFSET 0.786 0.112 2.5817
                  CHANNELS 6 Xposition Yposition Zposition Zrotation Xrotation Yrotation
                  JOINT lThumb2
                  {
                    OFFSET 0.3601 -0.878 4.2331
                    CHANNELS 6 Xposition Yposition Zposition Zrotation Xrotation Yrotation
                    JOINT lThumb2_End
                    {
                      OFFSET 1.8127 -1.216 2.2227
                      CHANNELS 6 Xposition Yposition Zposition Zrotation Xrotation Yrotation
                      End Site
                      {
                        OFFSET 0.0181 -0.0122 0.0222
                      }
                    }
                  }
                }
                JOINT lCarpal1
                {
                  OFFSET 0.9571 1.114 1.7695
                  CHANNELS 6 Xposition Yposition Zposition Zrotation Xrotation Yrotation
                  JOINT lIndex1
                  {
                    OFFSET 4.1246 0.487 4.1451
                    CHANNELS 6 Xposition Yposition Zposition Zrotation Xrotation Yrotation
                    JOINT lIndex2
                    {
                      OFFSET 3.4052 -1.454 2.7682
                      CHANNELS 6 Xposition Yposition Zposition Zrotation Xrotation Yrotation
                      JOINT lIndex2_End
                      {
                        OFFSET 1.4531 -1.795 1.2713
                        CHANNELS 6 Xposition Yposition Zposition Zrotation Xrotation Yrotation
                        End Site
                        {
                          OFFSET 0.0145 -0.0179 0.0127
                        }
                      }
                    }
                  }
                  JOINT lMid1
                  {
                    OFFSET 5.6954 0.21 2.1184
                    CHANNELS 6 Xposition Yposition Zposition Zrotation Xrotation Yrotation
                    JOINT lMid2
                    {
                      OFFSET 3.9766 -1.54 2.3863
                      CHANNELS 6 Xposition Yposition Zposition Zrotation Xrotation Yrotation
                      JOINT lMid2_End
                      {
                        OFFSET 1.4042 -1.926 1.125
                        CHANNELS 6 Xposition Yposition Zposition Zrotation Xrotation Yrotation
                        End Site
                        {
                          OFFSET 0.014 -0.0193 0.0113
                        }
                      }
                    }
                  }
                }
                JOINT lCarpal2
                {
                  OFFSET 2.0956 0.66 -0.3894
                  CHANNELS 6 Xposition Yposition Zposition Zrotation Xrotation Yrotation
                  JOINT lRing1
                  {
                    OFFSET 5.0395 -0.09 2.4971
                    CHANNELS 6 Xposition Yposition Zposition Zrotation Xrotation Yrotation
                    JOINT lRing2
                    {
                      OFFSET 3.7921 -1.552 1.4806
                      CHANNELS 6 Xposition Yposition Zposition Zrotation Xrotation Yrotation
                      JOINT lRing2_End
                      {
                        OFFSET 1.4655 -1.808 0.9609
                        CHANNELS 6 Xposition Yposition Zposition Zrotation Xrotation Yrotation
                        End Site
                        {
                          OFFSET 0.0147 -0.0181 0.0096
                        }
                      }
                    }
                  }
                  JOINT lPinky1
                  {
                    OFFSET 4.9141 -1.269 0.3591
                    CHANNELS 6 Xposition Yposition Zposition Zrotation Xrotation Yrotation
                    JOINT lPinky2
                    {
                      OFFSET 3.1477 -1.685 0.8462
                      CHANNELS 6 Xposition Yposition Zposition Zrotation Xrotation Yrotation
                      JOINT lPinky2_End
                      {
                        OFFSET 0.8055 -1.585 0.7955
                        CHANNELS 6 Xposition Yposition Zposition Zrotation Xrotation Yrotation
                        End Site
                        {
                          OFFSET 0.0081 -0.0158 0.008
                        }
                      }
                    }
                  }
                }
              }
            }
          }
        }
        JOINT rCollar
        {
          OFFSET -1.7069 20.075 5.0056
          CHANNELS 6 Xposition Yposition Zposition Zrotation Xrotation Yrotation
          JOINT rShldr
          {
            OFFSET -13.6458 -0.047 -4.849
            CHANNELS 6 Xposition Yposition Zposition Zrotation Xrotation Yrotation
            JOINT rForeArm
            {
              OFFSET -28.3255 -0.9759 2.2888
              CHANNELS 6 Xposition Yposition Zposition Zrotation Xrotation Yrotation
              JOINT rHand
              {
                OFFSET -22.1583 -0.53 10.8316
                CHANNELS 6 Xposition Yposition Zposition Zrotation Xrotation Yrotation
                JOINT rThumb1
                {
                  OFFSET -0.786 0.112 2.5817
                  CHANNELS 6 Xposition Yposition Zposition Zrotation Xrotation Yrotation
                  JOINT rThumb2
                  {
                    OFFSET -0.3601 -0.878 4.2331
                    CHANNELS 6 Xposition Yposition Zposition Zrotation Xrotation Yrotation
                    JOINT rThumb2_End
                    {
                      OFFSET -1.8127 -1.216 2.2227
                      CHANNELS 6 Xposition Yposition Zposition Zrotation Xrotation Yrotation
                      End Site
                      {
                        OFFSET -0.0181 -0.0122 0.0222
                      }
                    }
                  }
                }
                JOINT rCarpal1
                {
                  OFFSET -0.9571 1.114 1.7695
                  CHANNELS 6 Xposition Yposition Zposition Zrotation Xrotation Yrotation
                  JOINT rIndex1
                  {
                    OFFSET -4.1246 0.487 4.1451
                    CHANNELS 6 Xposition Yposition Zposition Zrotation Xrotation Yrotation
                    JOINT rIndex2
                    {
                      OFFSET -3.4052 -1.454 2.7682
                      CHANNELS 6 Xposition Yposition Zposition Zrotation Xrotation Yrotation
                      JOINT rIndex2_End
                      {
                        OFFSET -1.4531 -1.795 1.2713
                        CHANNELS 6 Xposition Yposition Zposition Zrotation Xrotation Yrotation
                        End Site
                        {
                          OFFSET -0.0145 -0.018 0.0127
                        }
                      }
                    }
                  }
                  JOINT rMid1
                  {
                    OFFSET -5.6954 0.21 2.1184
                    CHANNELS 6 Xposition Yposition Zposition Zrotation Xrotation Yrotation
                    JOINT rMid2
                    {
                      OFFSET -3.9766 -1.54 2.3863
                      CHANNELS 6 Xposition Yposition Zposition Zrotation Xrotation Yrotation
                      JOINT rMid2_End
                      {
                        OFFSET -1.4042 -1.926 1.125
                        CHANNELS 6 Xposition Yposition Zposition Zrotation Xrotation Yrotation
                        End Site
                        {
                          OFFSET -0.014 -0.0193 0.0113
                        }
                      }
                    }
                  }
                }
                JOINT rCarpal2
                {
                  OFFSET -2.0956 0.66 -0.3894
                  CHANNELS 6 Xposition Yposition Zposition Zrotation Xrotation Yrotation
                  JOINT rRing1
                  {
                    OFFSET -5.0395 -0.09 2.4971
                    CHANNELS 6 Xposition Yposition Zposition Zrotation Xrotation Yrotation
                    JOINT rRing2
                    {
                      OFFSET -3.7921 -1.552 1.4806
                      CHANNELS 6 Xposition Yposition Zposition Zrotation Xrotation Yrotation
                      JOINT rRing2_End
                      {
                        OFFSET -1.4655 -1.808 0.9609
                        CHANNELS 6 Xposition Yposition Zposition Zrotation Xrotation Yrotation
                        End Site
                        {
                          OFFSET -0.0147 -0.0181 0.0096
                        }
                      }
                    }
                  }
                  JOINT rPinky1
                  {
                    OFFSET -4.9141 -1.269 0.3592
                    CHANNELS 6 Xposition Yposition Zposition Zrotation Xrotation Yrotation
                    JOINT rPinky2
                    {
                      OFFSET -3.1477 -1.685 0.8462
                      CHANNELS 6 Xposition Yposition Zposition Zrotation Xrotation Yrotation
                      JOINT rPinky2_End
                      {
                        OFFSET -0.8055 -1.585 0.7955
                        CHANNELS 6 Xposition Yposition Zposition Zrotation Xrotation Yrotation
                        End Site
                        {
                          OFFSET -0.0081 -0.0158 0.008
                        }
                      }
                    }
                  }
                }
              }
            }
          }
        }
      }
    }
  }
  JOINT lThigh
  {
    OFFSET 8.367 -8.2066 0.5982
    CHANNELS 6 Xposition Yposition Zposition Zrotation Xrotation Yrotation
    JOINT lShin
    {
      OFFSET 2.1923 -43.463 -0.4932
      CHANNELS 6 Xposition Yposition Zposition Zrotation Xrotation Yrotation
      JOINT lFoot
      {
        OFFSET 0.7333 -45.8593 -2.6451
        CHANNELS 6 Xposition Yposition Zposition Zrotation Xrotation Yrotation
        End Site
        {
          OFFSET 2.6618 -4.2699 12.3931
        }
      }
    }
  }
  JOINT rThigh
  {
    OFFSET -8.367 -8.2066 0.5982
    CHANNELS 6 Xposition Yposition Zposition Zrotation Xrotation Yrotation
    JOINT rShin
    {
      OFFSET -2.1923 -43.463 -0.4931
      CHANNELS 6 Xposition Yposition Zposition Zrotation Xrotation Yrotation
      JOINT rFoot
      {
        OFFSET -0.7333 -45.8593 -2.6451
        CHANNELS 6 Xposition Yposition Zposition Zrotation Xrotation Yrotation
        End Site
        {
          OFFSET -2.6618 -4.2699 12.3931
        }
      }
    }
  }
}
MOTION
Frames:	4
Frame Time:	0.0333333
0 90.174 2.4664 0 0 -0 0 -1.186 -1.5018 0 0 -0 0 9.964 0.2134 0 0 -0 0 13.134 -3.2573 0 0 -0 0 20.686 -1.6905 0 0 -0 0 7.238 -0.1237 0 0 -0 1.7069 20.075 5.0056 0 0 -0 13.6458 -0.047 -4.849 1.66051 0.0835086 5.75766 28.3255 -0.9759 2.2888 -0.0175111 0.895433 15.7816 22.1583 -0.53 10.8316 7.95139e-016 -1.98785e-016 -0 0.786 0.112 2.5817 5.46658e-016 -3.97569e-016 -0 0.3601 -0.878 4.2331 5.96354e-016 0 -0 1.8127 -1.216 2.2227 3.97569e-016 1.98785e-016 9.54166e-015 0.9571 1.114 1.7695 1.49089e-016 -3.97569e-016 -0 4.1246 0.487 4.1451 6.4605e-016 0 3.18055e-015 3.4052 -1.454 2.7682 5.96354e-016 0 3.18055e-015 1.4531 -1.795 1.2713 8.94531e-016 -1.98785e-016 6.36111e-015 5.6954 0.21 2.1184 6.4605e-016 0 3.18055e-015 3.9766 -1.54 2.3863 5.96354e-016 0 3.18055e-015 1.4042 -1.926 1.125 8.94531e-016 -1.98785e-016 6.36111e-015 2.0956 0.66 -0.3894 1.49089e-016 -3.97569e-016 -0 5.0395 -0.09 2.4971 6.4605e-016 0 3.18055e-015 3.7921 -1.552 1.4806 5.96354e-016 0 3.18055e-015 1.4655 -1.808 0.9609 8.94531e-016 -1.98785e-016 6.36111e-015 4.9141 -1.269 0.3591 6.4605e-016 0 3.18055e-015 3.1477 -1.685 0.8462 5.96354e-016 0 3.18055e-015 0.8055 -1.585 0.7955 8.94531e-016 -1.98785e-016 6.36111e-015 -1.7069 20.075 5.0056 0 0 -0 -13.6458 -0.047 -4.849 -1.4496 0.0636048 -5.0245 -28.3255 -0.9759 2.2888 -1.74811 1.20616 -16.8394 -22.1583 -0.53 10.8316 -1.19271e-015 1.98785e-016 -3.18055e-015 -0.786 0.112 2.5817 -3.97569e-016 1.98785e-016 -3.18055e-015 -0.3601 -0.878 4.2331 -2.98177e-016 1.98785e-016 -3.18055e-015 -1.8127 -1.216 2.2227 -2.98177e-016 3.97569e-016 -0 -0.9571 1.114 1.7695 4.96962e-016 0 -6.36111e-015 -4.1246 0.487 4.1451 -9.93923e-017 3.97569e-016 -0 -3.4052 -1.454 2.7682 -8.94531e-016 5.96354e-016 -0 -1.4531 -1.795 1.2713 -3.97569e-016 3.97569e-016 -0 -5.6954 0.21 2.1184 -9.93923e-017 3.97569e-016 -0 -3.9766 -1.54 2.3863 -8.94531e-016 5.96354e-016 -0 -1.4042 -1.926 1.125 -3.97569e-016 3.97569e-016 -0 -2.0956 0.66 -0.3894 4.96962e-016 0 -6.36111e-015 -5.0395 -0.09 2.4971 -9.93923e-017 3.97569e-016 -0 -3.7921 -1.552 1.4806 -8.94531e-016 5.96354e-016 -0 -1.4655 -1.808 0.9609 -3.97569e-016 3.97569e-016 -0 -4.9141 -1.269 0.3592 -9.93923e-017 3.97569e-016 -0 -3.1477 -1.685 0.8462 -8.94531e-016 5.96354e-016 -0 -0.8055 -1.585 0.7955 -3.97569e-016 3.97569e-016 -0 8.367 -8.2066 0.5982 -4.66115 -1.03232 0.120763 2.1923 -43.463 -0.4932 0.00990601 1.55097 0.177175 0.7333 -45.8593 -2.6451 4.65196 -0.54114 -0.255042 -8.367 -8.2066 0.5982 4.66115 -1.03222 -0.120763 -2.1923 -43.463 -0.4931 -0.00990459 1.5509 -0.177176 -0.7333 -45.8593 -2.6451 -4.65196 -0.541171 0.255041 
-30.7368 30.2086 -10.222 -66.6667 -2.3753e-008 2.59276 7.10543e-015 -1.186 -1.5018 0.0232374 0.775313 -0.191092 -7.10543e-015 9.964 0.2134 0.0491216 1.55054 -0.382554 0 13.134 -3.2573 0.0490846 1.55054 -0.382554 0 20.686 -1.6905 0.000107552 39.461 -5.67187e-005 0 7.238 -0.1237 -2.19215e-006 -60.949 4.48637e-006 1.7069 20.075 5.0056 -12.3764 -2.21494 5.33272 13.6458 -0.047 -4.849 0.901239 -0.0109052 -48.6654 28.3255 -0.9759 2.2888 -9.27086 -8.30445 -10.3975 22.1583 -0.53 10.8316 -30.807 -18.8277 -24.5393 0.786 0.112 2.5817 4.42011e-007 -6.74081e-006 1.2384e-006 0.3601 -0.878 4.2331 1.08295e-006 4.13289e-006 -7.52987e-008 1.8127 -1.216 2.2227 4.42011e-007 -6.74081e-006 1.2384e-006 0.9571 1.114 1.7695 -1.59028e-015 -7.15625e-015 -0 4.1246 0.487 4.1451 4.42011e-007 -6.74081e-006 1.2384e-006 3.4052 -1.454 2.7682 1.08295e-006 4.13289e-006 -7.52987e-008 1.4531 -1.795 1.2713 4.42011e-007 -6.74081e-006 1.2384e-006 5.6954 0.21 2.1184 4.42011e-007 -6.74081e-006 1.2384e-006 3.9766 -1.54 2.3863 1.08295e-006 4.13289e-006 -7.52987e-008 1.4042 -1.926 1.125 4.42011e-007 -6.74081e-006 1.2384e-006 2.0956 0.66 -0.3894 -1.59028e-015 -7.15625e-015 -0 5.0395 -0.09 2.4971 4.42011e-007 -6.74081e-006 1.2384e-006 3.7921 -1.552 1.4806 1.08295e-006 4.13289e-006 -7.52987e-008 1.4655 -1.808 0.9609 4.42011e-007 -6.74081e-006 1.2384e-006 4.9141 -1.269 0.3591 4.42011e-007 -6.74081e-006 1.2384e-006 3.1477 -1.685 0.8462 1.08295e-006 4.13289e-006 -7.52987e-008 0.8055 -1.585 0.7955 4.42011e-007 -6.74081e-006 1.2384e-006 -1.7069 20.075 5.0056 12.3757 -2.19592 -5.31016 -13.6458 -0.047 -4.849 -0.763478 0.147921 49.4073 -28.3255 -0.9759 2.2888 7.40358 -8.82403 9.12278 -22.1583 -0.53 10.8316 30.9425 -19.3654 23.884 -0.786 0.112 2.5817 -7.07358e-007 4.65414e-007 -1.09186e-007 -0.3601 -0.878 4.2331 -7.07358e-007 4.65414e-007 -1.09186e-007 -1.8127 -1.216 2.2227 -1.28451e-006 -1.18201e-006 -6.7686e-008 -0.9571 1.114 1.7695 -0 -2.38542e-015 -0 -4.1246 0.487 4.1451 -7.07358e-007 4.65414e-007 -1.09186e-007 -3.4052 -1.454 2.7682 -7.07358e-007 4.65414e-007 -1.09186e-007 -1.4531 -1.795 1.2713 -1.28451e-006 -1.18201e-006 -6.7686e-008 -5.6954 0.21 2.1184 -7.07358e-007 4.65414e-007 -1.09186e-007 -3.9766 -1.54 2.3863 -7.07358e-007 4.65414e-007 -1.09186e-007 -1.4042 -1.926 1.125 -1.28451e-006 -1.18201e-006 -6.7686e-008 -2.0956 0.66 -0.3894 -0 -2.38542e-015 -0 -5.0395 -0.09 2.4971 -7.07358e-007 4.65414e-007 -1.09186e-007 -3.7921 -1.552 1.4806 -7.07358e-007 4.65414e-007 -1.09186e-007 -1.4655 -1.808 0.9609 -1.28451e-006 -1.18201e-006 -6.7686e-008 -4.9141 -1.269 0.3592 -7.07358e-007 4.65414e-007 -1.09186e-007 -3.1477 -1.685 0.8462 -7.07358e-007 4.65414e-007 -1.09186e-007 -0.8055 -1.585 0.7955 -1.28451e-006 -1.18201e-006 -6.7686e-008 8.367 -8.2066 0.5982 4.22665 -58.6394 -3.66661 2.1923 -43.463 -0.4932 -7.25352 37.8794 23.0167 0.7333 -45.8593 -2.6451 18.2269 31.1491 -25.9182 -8.367 -8.2066 0.5982 -61.1453 -35.0991 -50.8161 -2.1923 -43.463 -0.4931 57.0764 16.2318 -59.6329 -0.7333 -45.8593 -2.6451 -5.55512 37.3139 21.8106 
-48.9864 2.64928 -14.5733 -96.6667 1.47649e-007 3.75951 0 -1.186 -1.5018 0.0463083 1.03971 -0.275605 0 9.964 0.2134 0.0974988 2.07922 -0.552179 0 13.134 -3.2573 0.0975578 2.07922 -0.552175 8.88178e-016 20.686 -1.6905 0.000241419 56.217 -0.000191569 0 7.238 -0.1237 -7.58495e-005 -87.3474 -7.45775e-005 1.7069 20.075 5.0056 -17.7997 -3.06815 8.33486 13.6458 -0.047 -4.849 0.737721 -1.0154 -73.3198 28.3255 -0.9759 2.2888 -16.326 -10.3216 -23.5492 22.1583 -0.53 10.8316 -49.994 -21.9093 -36.1663 0.786 0.112 2.5817 6.36111e-015 -1.19271e-015 2.38542e-015 0.3601 -0.878 4.2331 1.65521e-032 -1.19271e-015 7.95139e-016 1.8127 -1.216 2.2227 1.37935e-032 -1.98785e-015 3.97569e-016 0.9571 1.114 1.7695 6.36111e-015 -3.97569e-016 2.38542e-015 4.1246 0.487 4.1451 -3.18055e-015 7.95139e-015 9.14409e-015 3.4052 -1.454 2.7682 3.18055e-015 -3.97569e-016 7.95139e-016 1.4531 -1.795 1.2713 -5.51738e-033 -7.95139e-016 -3.97569e-016 5.6954 0.21 2.1184 -3.18055e-015 7.95139e-015 9.14409e-015 3.9766 -1.54 2.3863 3.18055e-015 -3.97569e-016 7.95139e-016 1.4042 -1.926 1.125 -5.51738e-033 -7.95139e-016 -3.97569e-016 2.0956 0.66 -0.3894 6.36111e-015 -3.97569e-016 2.38542e-015 5.0395 -0.09 2.4971 -3.18055e-015 7.95139e-015 9.14409e-015 3.7921 -1.552 1.4806 3.18055e-015 -3.97569e-016 7.95139e-016 1.4655 -1.808 0.9609 -5.51738e-033 -7.95139e-016 -3.97569e-016 4.9141 -1.269 0.3591 -3.18055e-015 7.95139e-015 9.14409e-015 3.1477 -1.685 0.8462 3.18055e-015 -3.97569e-016 7.95139e-016 0.8055 -1.585 0.7955 -5.51738e-033 -7.95139e-016 -3.97569e-016 -1.7069 20.075 5.0056 17.7835 -3.13491 -8.42715 -13.6458 -0.047 -4.849 -0.685434 -0.814127 74.008 -28.3255 -0.9759 2.2888 14.4957 -11.3119 22.0411 -22.1583 -0.53 10.8316 50.5314 -22.3652 35.5816 -0.786 0.112 2.5817 -6.36111e-015 1.98785e-015 1.39149e-015 -0.3601 -0.878 4.2331 1.88917e-006 2.39925e-006 -5.948e-007 -1.8127 -1.216 2.2227 3.18055e-015 -1.03368e-014 -1.98785e-016 -0.9571 1.114 1.7695 -6.36111e-015 1.98785e-015 1.39149e-015 -4.1246 0.487 4.1451 3.18055e-015 -6.75868e-015 9.93923e-015 -3.4052 -1.454 2.7682 1.88917e-006 2.39925e-006 -5.948e-007 -1.4531 -1.795 1.2713 -3.18055e-015 -8.74653e-015 -1.19271e-015 -5.6954 0.21 2.1184 3.18055e-015 -6.75868e-015 9.93923e-015 -3.9766 -1.54 2.3863 1.88917e-006 2.39925e-006 -5.948e-007 -1.4042 -1.926 1.125 -3.18055e-015 -8.74653e-015 -1.19271e-015 -2.0956 0.66 -0.3894 -6.36111e-015 1.98785e-015 1.39149e-015 -5.0395 -0.09 2.4971 3.18055e-015 -6.75868e-015 9.93923e-015 -3.7921 -1.552 1.4806 1.88917e-006 2.39925e-006 -5.948e-007 -1.4655 -1.808 0.9609 -3.18055e-015 -8.74653e-015 -1.19271e-015 -4.9141 -1.269 0.3592 3.18055e-015 -6.75868e-015 9.93923e-015 -3.1477 -1.685 0.8462 1.88917e-006 2.39925e-006 -5.948e-007 -0.8055 -1.585 0.7955 -3.18055e-015 -8.74653e-015 -1.19271e-015 8.367 -8.2066 0.5982 -15.6875 -87.3941 -29.0869 2.1923 -43.463 -0.4932 -27.4289 54.9637 44.8993 0.7333 -45.8593 -2.6451 33.7897 38.6948 -42.0417 -8.367 -8.2066 0.5982 -103.875 -28.8107 -75.0705 -2.1923 -43.463 -0.4931 88.7709 4.9167 -69.7457 -0.7333 -45.8593 -2.6451 -2.43854 53.0239 20.8736 
-45.184 8.39246 -13.0218 -90 1.98785e-016 3.50023 -1.77636e-015 -1.186 -1.5018 0.0415139 0.793409 -0.256597 8.88178e-016 9.964 0.2134 0.0866695 1.58662 -0.513845 0 13.134 -3.2573 0.0866311 1.58662 -0.513846 -1.77636e-015 20.686 -1.6905 -0.000293184 50.2651 0.000186505 0 7.238 -0.1237 -9.21238e-005 -79.1931 -9.42466e-005 1.7069 20.075 5.0056 -16.5861 -2.5963 8.99205 13.6458 -0.047 -4.849 0.778827 -0.795457 -68.2739 28.3255 -0.9759 2.2888 -15.2677 -9.54038 -22.813 22.1583 -0.53 10.8316 -45.1642 -22.8602 -32.4279 0.786 0.112 2.5817 3.18055e-015 3.97569e-015 -3.18055e-015 0.3601 -0.878 4.2331 -3.31043e-032 -7.95139e-016 -2.38542e-015 1.8127 -1.216 2.2227 1.27222e-014 3.18055e-015 -1.59028e-015 0.9571 1.114 1.7695 3.18055e-015 3.97569e-015 -3.18055e-015 4.1246 0.487 4.1451 -3.5863e-030 1.98785e-014 1.03368e-014 3.4052 -1.454 2.7682 9.54166e-015 3.18055e-015 7.95139e-016 1.4531 -1.795 1.2713 6.36111e-015 -3.97569e-015 -7.95139e-016 5.6954 0.21 2.1184 -3.5863e-030 1.98785e-014 1.03368e-014 3.9766 -1.54 2.3863 9.54166e-015 3.18055e-015 7.95139e-016 1.4042 -1.926 1.125 6.36111e-015 -3.97569e-015 -7.95139e-016 2.0956 0.66 -0.3894 3.18055e-015 3.97569e-015 -3.18055e-015 5.0395 -0.09 2.4971 -3.5863e-030 1.98785e-014 1.03368e-014 3.7921 -1.552 1.4806 9.54166e-015 3.18055e-015 7.95139e-016 1.4655 -1.808 0.9609 6.36111e-015 -3.97569e-015 -7.95139e-016 4.9141 -1.269 0.3591 -3.5863e-030 1.98785e-014 1.03368e-014 3.1477 -1.685 0.8462 9.54166e-015 3.18055e-015 7.95139e-016 0.8055 -1.585 0.7955 6.36111e-015 -3.97569e-015 -7.95139e-016 -1.7069 20.075 5.0056 16.5347 -2.85276 -9.33698 -13.6458 -0.047 -4.849 -0.721926 -0.609153 68.8434 -28.3255 -0.9759 2.2888 13.3032 -10.5922 20.8537 -22.1583 -0.53 10.8316 46.2513 -22.6066 32.302 -0.786 0.112 2.5817 1.59028e-014 -1.59028e-015 -0 -0.3601 -0.878 4.2331 3.18055e-015 -3.97569e-016 -7.95139e-016 -1.8127 -1.216 2.2227 6.36111e-015 -3.97569e-015 -3.18055e-015 -0.9571 1.114 1.7695 6.36111e-015 2.78299e-015 2.38542e-015 -4.1246 0.487 4.1451 6.36111e-015 0 3.97569e-015 -3.4052 -1.454 2.7682 1.90833e-014 -3.57812e-015 -2.38542e-015 -1.4531 -1.795 1.2713 9.54166e-015 -3.57812e-015 -0 -5.6954 0.21 2.1184 6.36111e-015 0 3.97569e-015 -3.9766 -1.54 2.3863 1.90833e-014 -3.57812e-015 -2.38542e-015 -1.4042 -1.926 1.125 9.54166e-015 -3.57812e-015 -0 -2.0956 0.66 -0.3894 6.36111e-015 2.78299e-015 2.38542e-015 -5.0395 -0.09 2.4971 6.36111e-015 0 3.97569e-015 -3.7921 -1.552 1.4806 1.90833e-014 -3.57812e-015 -2.38542e-015 -1.4655 -1.808 0.9609 9.54166e-015 -3.57812e-015 -0 -4.9141 -1.269 0.3592 6.36111e-015 0 3.97569e-015 -3.1477 -1.685 0.8462 1.90833e-014 -3.57812e-015 -2.38542e-015 -0.8055 -1.585 0.7955 9.54166e-015 -3.57812e-015 -0 8.367 -8.2066 0.5982 1.53293 -81.976 -10.5003 2.1923 -43.463 -0.4932 -21.5348 53.6784 38.6421 0.7333 -45.8593 -2.6451 29.1754 36.6345 -37.4116 -8.367 -8.2066 0.5982 -95.5053 -30.7312 -71.1921 -2.1923 -43.463 -0.4931 81.7758 8.47916 -67.3649 -0.7333 -45.8593 -2.6451 -2.16466 49.858 19.5101 
